<?xml version="1.0" standalone="no"?><!DOCTYPE svg PUBLIC "-//W3C//DTD SVG 1.1//EN" "http://www.w3.org/Graphics/SVG/1.1/DTD/svg11.dtd"><svg t="1712390385042" class="icon" viewBox="0 0 1024 1024" version="1.1" xmlns="http://www.w3.org/2000/svg" p-id="10659" xmlns:xlink="http://www.w3.org/1999/xlink" width="200" height="200"><path d="M782.848 641.536m-185.856 0a185.856 185.856 0 1 0 371.712 0 185.856 185.856 0 1 0-371.712 0Z" fill="#FFE200" p-id="10660"></path><path d="M293.376 257.024h-66.56c-16.896 0-30.72-13.824-30.72-30.72s13.824-30.72 30.72-30.72h66.56c16.896 0 30.72 13.824 30.72 30.72s-13.824 30.72-30.72 30.72z" fill="#FFE200" p-id="10661"></path><path d="M861.184 156.16v534.016H158.72V156.16h702.464m24.064-61.44H134.144c-20.48 0-37.376 16.896-37.376 37.376v582.656c0 20.48 16.896 37.376 37.376 37.376h751.104c20.48 0 37.376-16.896 37.376-37.376V132.096c0-20.48-16.896-37.376-37.376-37.376z" fill="#405FD3" p-id="10662"></path><path d="M509.44 645.12c-6.656 0-12.8-2.048-17.92-6.144l-76.8-56.32c-4.608-3.584-8.704-8.192-10.752-13.824l-49.664-131.584L332.8 563.2c-2.56 14.848-15.36 25.6-30.208 25.6H240.64c-16.896 0-30.72-13.824-30.72-30.72s13.824-30.72 30.72-30.72h35.84l35.84-212.48c2.56-13.824 13.312-24.064 27.136-25.6 13.824-1.536 26.624 6.656 31.744 19.968l86.528 229.376 38.4 28.16 37.888-88.576c4.608-10.752 14.848-17.92 26.624-18.432 11.776-0.512 22.528 5.12 28.672 15.36l23.04 39.936 62.976-218.624c4.096-13.824 16.384-23.04 30.72-22.016 14.336 0.512 26.112 10.752 28.672 25.088l39.936 208.384h7.168c16.896 0 30.72 13.824 30.72 30.72s-13.824 30.72-30.72 30.72h-32.256c-14.848 0-27.136-10.24-30.208-25.088l-20.48-107.008-47.104 164.864c-3.584 11.776-13.312 20.48-25.6 22.016-12.288 1.536-24.064-4.608-30.208-15.36l-28.16-49.152-29.184 67.584c-3.584 8.704-11.264 14.848-19.968 17.408-3.584 0-6.656 0.512-9.216 0.512zM558.08 914.944H128c-16.896 0-30.72-13.824-30.72-30.72s13.824-30.72 30.72-30.72h430.08c16.896 0 30.72 13.824 30.72 30.72s-13.824 30.72-30.72 30.72zM745.472 914.944h-96.256c-16.896 0-30.72-13.824-30.72-30.72s13.824-30.72 30.72-30.72h96.256c16.896 0 30.72 13.824 30.72 30.72s-13.312 30.72-30.72 30.72zM892.928 914.944h-50.176c-16.896 0-30.72-13.824-30.72-30.72s13.824-30.72 30.72-30.72h50.176c16.896 0 30.72 13.824 30.72 30.72s-13.824 30.72-30.72 30.72z" fill="#405FD3" p-id="10663"></path></svg>